<svg width="20" height="20" viewBox="0 0 20 20" fill="none" xmlns="http://www.w3.org/2000/svg">
<path d="M8.86364 6.4162C8.85936 6.5924 8.78565 6.75995 8.65824 6.88306C8.53084 7.00616 8.35985 7.07505 8.18182 7.075C7.5 7.075 7.5 6.3991 7.5 6.3991V6.391C7.50048 6.35071 7.50291 6.31046 7.50727 6.2704C7.54749 5.92274 7.67914 5.59162 7.88909 5.3101C8.30182 4.7584 9.04364 4.3543 10.2391 4.375C11.1027 4.3903 11.8691 4.7485 12.3491 5.338C12.8373 5.9383 13.0018 6.751 12.6782 7.5511C12.3491 8.3656 11.6045 8.6896 11.1764 8.875L11.1309 8.8957C10.8764 9.0064 10.7555 9.064 10.6827 9.1216L10.6818 9.1225V9.7741C10.6819 9.95312 10.6102 10.1249 10.4824 10.2515C10.3547 10.3782 10.1813 10.4494 10.0005 10.4495C9.81963 10.4497 9.64615 10.3787 9.5182 10.2522C9.39025 10.1257 9.3183 9.95402 9.31818 9.775V9.1C9.31818 8.6293 9.54727 8.2927 9.83 8.0677C10.0573 7.8877 10.3436 7.7635 10.5445 7.6753L10.5791 7.66C11.0718 7.4449 11.3064 7.3117 11.4127 7.0489C11.4752 6.90761 11.4965 6.75186 11.4743 6.5992C11.4522 6.44655 11.3874 6.30306 11.2873 6.1849C11.0855 5.9374 10.7155 5.7331 10.2155 5.725C9.36546 5.7106 9.08364 5.9815 8.98545 6.1138C8.92043 6.20118 8.87855 6.30328 8.86364 6.4108V6.4162V6.4162ZM10 13.15C10.2411 13.15 10.4723 13.0552 10.6428 12.8864C10.8133 12.7176 10.9091 12.4887 10.9091 12.25C10.9091 12.0113 10.8133 11.7824 10.6428 11.6136C10.4723 11.4448 10.2411 11.35 10 11.35C9.75889 11.35 9.52766 11.4448 9.35718 11.6136C9.18669 11.7824 9.09091 12.0113 9.09091 12.25C9.09091 12.4887 9.18669 12.7176 9.35718 12.8864C9.52766 13.0552 9.75889 13.15 10 13.15V13.15ZM2.5 3.25C2.5 2.65326 2.73945 2.08097 3.16567 1.65901C3.59189 1.23705 4.16996 1 4.77273 1H15.2273C15.5257 1 15.8213 1.0582 16.097 1.17127C16.3727 1.28434 16.6233 1.45008 16.8343 1.65901C17.0454 1.86794 17.2128 2.11598 17.327 2.38896C17.4412 2.66194 17.5 2.95453 17.5 3.25V16.075C17.5 16.254 17.4282 16.4257 17.3003 16.5523C17.1724 16.6789 16.999 16.75 16.8182 16.75H3.86364C3.86364 16.9887 3.95942 17.2176 4.1299 17.3864C4.30039 17.5552 4.53162 17.65 4.77273 17.65H16.8182C16.999 17.65 17.1724 17.7211 17.3003 17.8477C17.4282 17.9743 17.5 18.146 17.5 18.325C17.5 18.504 17.4282 18.6757 17.3003 18.8023C17.1724 18.9289 16.999 19 16.8182 19H4.77273C4.16996 19 3.59189 18.7629 3.16567 18.341C2.73945 17.919 2.5 17.3467 2.5 16.75V3.25ZM3.86364 3.25V15.4H16.1364V3.25C16.1364 3.01131 16.0406 2.78239 15.8701 2.6136C15.6996 2.44482 15.4684 2.35 15.2273 2.35H4.77273C4.53162 2.35 4.30039 2.44482 4.1299 2.6136C3.95942 2.78239 3.86364 3.01131 3.86364 3.25Z" fill="#202020"/>
</svg>
