<svg width="184" height="24" viewBox="0 0 184 24" fill="none" xmlns="http://www.w3.org/2000/svg">
<g opacity="0.6">
<path d="M22 11.7424C22 17.1231 17.6047 21.4849 12.1818 21.4849C10.4602 21.4849 8.84289 21.0449 7.43578 20.2727L2 22L3.77222 16.7729C2.87822 15.3049 2.36333 13.5831 2.36333 11.7424C2.36333 6.36178 6.75911 2 12.1818 2C17.6051 2 22 6.36178 22 11.7424ZM12.1818 3.55156C7.62978 3.55156 3.92711 7.226 3.92711 11.7424C3.92711 13.5347 4.51133 15.1944 5.49956 16.5447L4.46822 19.5867L7.64044 18.5784C8.94378 19.4342 10.5051 19.9333 12.182 19.9333C16.7333 19.9333 20.4367 16.2593 20.4367 11.7429C20.4367 7.22644 16.7336 3.55156 12.1818 3.55156ZM17.1398 13.9862C17.0791 13.8869 16.9189 13.8269 16.6784 13.7076C16.4376 13.5882 15.254 13.0102 15.034 12.9309C14.8133 12.8513 14.6524 12.8113 14.4922 13.0502C14.332 13.2893 13.8707 13.8269 13.73 13.9862C13.5896 14.146 13.4493 14.166 13.2084 14.0464C12.968 13.9271 12.1927 13.6747 11.2733 12.8613C10.558 12.2284 10.0749 11.4471 9.93444 11.2078C9.79422 10.9689 9.91978 10.8398 10.04 10.7209C10.1484 10.6138 10.2809 10.442 10.4011 10.3027C10.5218 10.1631 10.5618 10.0638 10.6416 9.90422C10.7222 9.74489 10.682 9.60556 10.6216 9.48578C10.5616 9.36644 10.0798 8.19133 9.87933 7.71311C9.67889 7.23533 9.47867 7.31489 9.338 7.31489C9.19778 7.31489 9.03711 7.29489 8.87667 7.29489C8.71622 7.29489 8.45533 7.35467 8.23467 7.59356C8.01422 7.83267 7.39267 8.41044 7.39267 9.58533C7.39267 10.7604 8.25467 11.8958 8.37533 12.0549C8.49556 12.214 10.0398 14.7038 12.4864 15.66C14.9333 16.6158 14.9333 16.2969 15.3747 16.2569C15.8156 16.2171 16.7982 15.6793 16.9996 15.122C17.1996 14.5638 17.1996 14.0858 17.1398 13.9862Z" fill="white"/>
</g>
<g opacity="0.6">
<path d="M52 2C46.4775 2 42 6.145 42 11.2587C42 14.1725 43.4538 16.7712 45.7262 18.4688V22L49.1312 20.1313C50.04 20.3825 51.0025 20.5187 52 20.5187C57.5225 20.5187 62 16.3737 62 11.26C62 6.14625 57.5225 2 52 2ZM52.9937 14.4688L50.4475 11.7525L45.4787 14.4688L50.945 8.66625L53.5538 11.3825L58.46 8.66625L52.9937 14.4688Z" fill="white"/>
</g>
<g opacity="0.6">
<path d="M97.5628 1.00458L94.7856 1C91.6654 1 89.649 3.12509 89.649 6.41423V8.91055H86.8566C86.6153 8.91055 86.4199 9.1115 86.4199 9.35937V12.9763C86.4199 13.2241 86.6155 13.4249 86.8566 13.4249H89.649V22.5514C89.649 22.7993 89.8444 23 90.0857 23H93.729C93.9703 23 94.1657 22.799 94.1657 22.5514V13.4249H97.4307C97.672 13.4249 97.8674 13.2241 97.8674 12.9763L97.8688 9.35937C97.8688 9.24036 97.8226 9.12638 97.7409 9.04215C97.6591 8.95793 97.5477 8.91055 97.4318 8.91055H94.1657V6.79439C94.1657 5.77728 94.4017 5.26094 95.6915 5.26094L97.5624 5.26025C97.8035 5.26025 97.9989 5.0593 97.9989 4.81166V1.45317C97.9989 1.20576 97.8037 1.00504 97.5628 1.00458Z" fill="white"/>
</g>
<g opacity="0.6">
<path d="M142.5 5.77233C141.727 6.10027 140.898 6.32267 140.026 6.42196C140.916 5.91181 141.597 5.10263 141.92 4.1414C141.085 4.61383 140.164 4.95688 139.183 5.14285C138.397 4.33994 137.279 3.83984 136.038 3.83984C133.659 3.83984 131.73 5.68691 131.73 7.9637C131.73 8.2866 131.768 8.60199 131.842 8.90357C128.262 8.73141 125.088 7.08917 122.963 4.59372C122.592 5.20189 122.38 5.91053 122.38 6.66697C122.38 8.09814 123.142 9.36093 124.296 10.0997C123.59 10.0771 122.926 9.89116 122.345 9.58205V9.63357C122.345 11.6314 123.831 13.2988 125.8 13.6783C125.439 13.7713 125.059 13.8228 124.665 13.8228C124.387 13.8228 124.118 13.7964 123.854 13.7461C124.403 15.3859 125.993 16.5783 127.878 16.611C126.404 17.7167 124.546 18.3739 122.527 18.3739C122.18 18.3739 121.837 18.3537 121.5 18.3173C123.407 19.4896 125.67 20.1732 128.103 20.1732C136.028 20.1732 140.36 13.8881 140.36 8.43741L140.345 7.90341C141.192 7.32537 141.924 6.59912 142.5 5.77233Z" fill="white"/>
</g>
<g opacity="0.6">
<path fill-rule="evenodd" clip-rule="evenodd" d="M181.39 4.11358C182.418 4.39044 183.229 5.20086 183.506 6.22899C184.02 8.10691 184 12.0213 184 12.0213C184 12.0213 184 15.9158 183.506 17.7939C183.229 18.8218 182.418 19.6324 181.39 19.9091C179.512 20.4035 172 20.4035 172 20.4035C172 20.4035 164.507 20.4035 162.61 19.8895C161.581 19.6127 160.771 18.802 160.494 17.7741C160 15.9158 160 12.0015 160 12.0015C160 12.0015 160 8.10691 160.494 6.22899C160.771 5.20104 161.601 4.37066 162.609 4.09399C164.488 3.59961 172 3.59961 172 3.59961C172 3.59961 179.512 3.59961 181.39 4.11358ZM175.855 12.0016L169.608 15.5996V8.40355L175.855 12.0016Z" fill="white"/>
</g>
</svg>
